<svg width="24" height="24" viewBox="0 0 24 24" fill="none" xmlns="http://www.w3.org/2000/svg">
<g id="Icon">
<g id="Vector 75">
<mask id="path-1-outside-1_77_608" maskUnits="userSpaceOnUse" x="1" y="0" width="22" height="24" fill="black">
<rect fill="white" x="1" width="22" height="24"/>
<path d="M12 2L21 9V22H16.3056V15C16.3056 14.4477 15.8578 14 15.3056 14H8.69444C8.14216 14 7.69444 14.4477 7.69444 15V22H3V9L12 2Z"/>
</mask>
<path d="M12 2L21 9V22H16.3056V15C16.3056 14.4477 15.8578 14 15.3056 14H8.69444C8.14216 14 7.69444 14.4477 7.69444 15V22H3V9L12 2Z" fill="currentColor"/>
<path d="M21 9H23C23 8.38282 22.7151 7.80021 22.2279 7.4213L21 9ZM12 2L13.2279 0.421296C12.5057 -0.140432 11.4943 -0.140432 10.7721 0.421296L12 2ZM3 9L1.77212 7.4213C1.28495 7.80021 1 8.38282 1 9H3ZM3 22H1C1 23.1046 1.89543 24 3 24L3 22ZM7.69444 22V24H9.69444V22H7.69444ZM16.3056 22H14.3056V24H16.3056V22ZM21 22V24C22.1046 24 23 23.1046 23 22H21ZM22.2279 7.4213L13.2279 0.421296L10.7721 3.5787L19.7721 10.5787L22.2279 7.4213ZM10.7721 0.421296L1.77212 7.4213L4.22788 10.5787L13.2279 3.5787L10.7721 0.421296ZM1 9V22H5V9H1ZM3 24H7.69444V20H3V24ZM9.69444 22V15H5.69444V22H9.69444ZM8.69444 16H15.3056V12H8.69444V16ZM14.3056 15V22H18.3056V15H14.3056ZM16.3056 24H21V20H16.3056V24ZM23 22V9H19V22H23ZM15.3056 16C14.7533 16 14.3056 15.5523 14.3056 15H18.3056C18.3056 13.3431 16.9624 12 15.3056 12V16ZM9.69444 15C9.69444 15.5523 9.24673 16 8.69444 16V12C7.03759 12 5.69444 13.3431 5.69444 15H9.69444Z" fill="currentColor" mask="url(#path-1-outside-1_77_608)"/>
</g>
</g>
</svg>
