<svg width="25" height="24" viewBox="0 0 25 24" fill="none" xmlns="http://www.w3.org/2000/svg">
<path id="Vector" d="M11.7676 3.09228L12.5113 3.89221L13.2427 3.08098C13.8214 2.43906 14.4893 1.94401 15.251 1.58851C16.0009 1.23856 16.7989 1.0625 17.6562 1.0625C19.4425 1.0625 20.9156 1.73608 22.1376 3.1346C23.3781 4.55436 24 6.23186 24 8.21832C24 8.57426 23.9811 8.92395 23.9434 9.26761C23.9078 9.59315 23.8455 9.91401 23.7562 10.2308C23.6608 10.5696 23.2505 11.7697 22.6969 12.516C22.6523 12.5762 22.5856 12.6599 22.5238 12.736C22.4943 12.7724 22.468 12.8043 22.4492 12.8271L22.4274 12.8534L22.4218 12.8601L22.4205 12.8616L22.4204 12.8618L22.4203 12.8618L22.4203 12.8619L22.4203 12.8619L22.4131 12.8705L22.406 12.8794L22.1211 13.2363L13.7466 22.0113C13.7464 22.0116 13.7461 22.0118 13.7459 22.0121C13.5614 22.2044 13.3703 22.3345 13.1721 22.4186C12.9667 22.5057 12.7457 22.5513 12.5 22.5513C12.2543 22.5513 12.0242 22.5056 11.8022 22.4144C11.5944 22.3289 11.402 22.199 11.2225 22.0117C11.2224 22.0115 11.2223 22.0114 11.2221 22.0113L2.84843 13.237L2.84714 13.2356C2.74364 13.1276 2.65097 13.022 2.56843 12.9191L2.56651 12.9166L2.54445 12.8877C2.52547 12.8628 2.49897 12.8278 2.46911 12.7879C2.4071 12.7052 2.33904 12.6125 2.2927 12.5451C1.75327 11.7608 1.33624 10.5589 1.24378 10.2308C1.15454 9.91402 1.0922 9.59315 1.05656 9.26762C1.01871 8.92188 1 8.58305 1 8.25094C1 6.23802 1.61972 4.54944 2.84921 3.13182C4.06002 1.73573 5.52649 1.0625 7.3125 1.0625C8.1699 1.0625 8.96788 1.23856 9.71771 1.58851C10.4825 1.94546 11.1648 2.44393 11.7676 3.09228Z" stroke="#BBBBBB" stroke-width="2"/>
</svg>
