<svg width="219" height="40" viewBox="0 0 219 40" fill="none" xmlns="http://www.w3.org/2000/svg">
<path d="M44.4384 39H31.1184L36.6384 13.08L22.4184 39H14.2584L11.5584 12.18L5.79844 39H0.398438L8.49844 0.899997H23.7984L25.6584 22.38L37.1784 0.899997H52.5984L44.4384 39ZM84.2634 39H70.2234L69.3834 29.46H58.2834L54.0234 39H48.2034L65.9034 0.899997H80.1234L84.2634 39ZM60.2634 25.08H68.9634L67.5834 8.76L60.2634 25.08ZM119.097 39H105.057L98.3972 11.46L92.5172 39H87.1172L95.2172 0.899997H109.557L115.857 28.8L121.797 0.899997H127.317L119.097 39ZM138.69 39H125.73L133.83 0.899997H146.85L138.69 39ZM181.841 5.46H172.181L165.041 39H152.081L159.221 5.46H149.681L150.761 0.899997H182.861L181.841 5.46ZM202.187 0.299998C205.627 0.299998 208.407 0.739998 210.527 1.62C212.687 2.5 214.387 3.86 215.627 5.7C216.427 6.94 217.047 8.34 217.487 9.9C217.927 11.46 218.147 13.26 218.147 15.3C218.147 17.06 217.987 18.82 217.667 20.58C217.347 22.34 216.887 24.04 216.287 25.68C215.727 27.28 215.027 28.8 214.187 30.24C213.387 31.64 212.487 32.88 211.487 33.96C209.607 36 207.427 37.44 204.947 38.28C202.507 39.08 199.487 39.48 195.887 39.48C192.407 39.48 189.607 39.12 187.487 38.4C185.367 37.68 183.687 36.52 182.447 34.92C181.567 33.8 180.867 32.38 180.347 30.66C179.867 28.94 179.627 26.78 179.627 24.18C179.627 19.74 180.407 15.78 181.967 12.3C183.567 8.78 185.827 6 188.747 3.96C190.507 2.72 192.467 1.8 194.627 1.2C196.787 0.599997 199.307 0.299998 202.187 0.299998ZM195.407 35.28C196.327 35.28 197.187 34.88 197.987 34.08C198.827 33.24 199.587 32.14 200.267 30.78C200.987 29.38 201.627 27.8 202.187 26.04C202.787 24.28 203.287 22.46 203.687 20.58C204.087 18.7 204.387 16.84 204.587 15C204.827 13.12 204.947 11.42 204.947 9.9C204.947 7.82 204.727 6.4 204.287 5.64C203.887 4.84 203.287 4.44 202.487 4.44C201.567 4.44 200.687 4.84 199.847 5.64C199.007 6.44 198.207 7.52 197.447 8.88C196.727 10.2 196.067 11.74 195.467 13.5C194.907 15.22 194.407 17 193.967 18.84C193.567 20.68 193.247 22.5 193.007 24.3C192.807 26.1 192.707 27.76 192.707 29.28C192.707 31.56 192.947 33.14 193.427 34.02C193.947 34.86 194.607 35.28 195.407 35.28Z" fill="#E2007E"/>
</svg>
