<svg width="98" height="19" viewBox="0 0 98 19" fill="none" xmlns="http://www.w3.org/2000/svg">
<path d="M19.818 18H13.824L16.308 6.336L9.909 18H6.237L5.022 5.931L2.43 18H0L3.645 0.854999H10.53L11.367 10.521L16.551 0.854999H23.49L19.818 18ZM37.7393 18H31.4213L31.0433 13.707H26.0483L24.1313 18H21.5122L29.4773 0.854999H35.8763L37.7393 18ZM26.9393 11.736H30.8543L30.2333 4.392L26.9393 11.736ZM53.4144 18H47.0964L44.0994 5.607L41.4534 18H39.0234L42.6684 0.854999H49.1214L51.9564 13.41L54.6294 0.854999H57.1134L53.4144 18ZM62.2314 18H56.3994L60.0444 0.854999H65.9034L62.2314 18ZM81.6491 2.907H77.3021L74.0891 18H68.2571L71.4701 2.907H67.1771L67.6631 0.854999H82.1081L81.6491 2.907ZM90.805 0.584999C92.353 0.584999 93.604 0.782999 94.558 1.179C95.53 1.575 96.295 2.187 96.853 3.015C97.213 3.573 97.492 4.203 97.69 4.905C97.888 5.607 97.987 6.417 97.987 7.335C97.987 8.127 97.915 8.919 97.771 9.711C97.627 10.503 97.42 11.268 97.15 12.006C96.898 12.726 96.583 13.41 96.205 14.058C95.845 14.688 95.44 15.246 94.99 15.732C94.144 16.65 93.163 17.298 92.047 17.676C90.949 18.036 89.59 18.216 87.97 18.216C86.404 18.216 85.144 18.054 84.19 17.73C83.236 17.406 82.48 16.884 81.922 16.164C81.526 15.66 81.211 15.021 80.977 14.247C80.761 13.473 80.653 12.501 80.653 11.331C80.653 9.333 81.004 7.551 81.706 5.985C82.426 4.401 83.443 3.15 84.757 2.232C85.549 1.674 86.431 1.26 87.403 0.989999C88.375 0.719999 89.509 0.584999 90.805 0.584999ZM87.754 16.326C88.168 16.326 88.555 16.146 88.915 15.786C89.293 15.408 89.635 14.913 89.941 14.301C90.265 13.671 90.553 12.96 90.805 12.168C91.075 11.376 91.3 10.557 91.48 9.711C91.66 8.865 91.795 8.028 91.885 7.2C91.993 6.354 92.047 5.589 92.047 4.905C92.047 3.969 91.948 3.33 91.75 2.988C91.57 2.628 91.3 2.448 90.94 2.448C90.526 2.448 90.13 2.628 89.752 2.988C89.374 3.348 89.014 3.834 88.672 4.446C88.348 5.04 88.051 5.733 87.781 6.525C87.529 7.299 87.304 8.1 87.106 8.928C86.926 9.756 86.782 10.575 86.674 11.385C86.584 12.195 86.539 12.942 86.539 13.626C86.539 14.652 86.647 15.363 86.863 15.759C87.097 16.137 87.394 16.326 87.754 16.326Z" fill="#E2007E"/>
</svg>
